# xmcd CD database file
#
# Track frame offsets:
#	150
#	7604
#	21666
#	36704
#	50765
#	68643
#	87597
#	102956
#	116136
#	140185
#	154836
#	177885
#	194662
#	210436
#
# Disc length: 3037 seconds
#
# Revision: 0
# Processed by: cddbd v1.5.2PL0 Copyright (c) Steve Scherf et al.
# Submitted via: CDex 1.51
#
DISCID=d00bdb0e
DTITLE=Boondox - The Murder
DYEAR=2017
DGENRE=Horrorcore
TTITLE0=Boondox - Welcome
TTITLE1=Boondox - Peck Your Eyes Out
TTITLE2=Boondox Feat. Jamie Madrox - Throw Away Feat. Jamie Madrox
TTITLE3=Boondox - Bloodletting
TTITLE4=Boondox - Feed The Machine
TTITLE5=Boondox - Free Soul
TTITLE6=Boondox Feat. Twiztid - Purge Feat. Twiztid
TTITLE7=Boondox - Cannibalistic Prodigal Misfit
TTITLE8=Boondox Feat. Jamie Madrox, Bubba Sparxxx, and Struggle - Born In Fire Feat. Jamie Madrox, Bubba Sparxxx, and Struggle
TTITLE9=Boondox - I'm A Mess
TTITLE10=Boondox, Jamie Madrox, Monoxide, Blaze Ya Dead Homie, The R.O.C., Lex The Hex Master, G-Mo Skee, and Young Wicked - Outlined In Chalk Feat. Twiztid, Blaze Ya Dead Homie, The R.O.C., Lex The Hex Master, G-Mo Skee, and Young Wicked
TTITLE11=Boondox and Jamie Madrox - Sittin' On The Porch
TTITLE12=Boondox and Jamie Madrox - They Don't Understand Feat. Jamie Madrox
TTITLE13=Boondox and Jamie Madrox - Terminus Feat. Jamie Madrox
EXTD=YEAR: 2017
EXTT0=
EXTT1=
EXTT2=
EXTT3=
EXTT4=
EXTT5=
EXTT6=
EXTT7=
EXTT8=
EXTT9=
EXTT10=
EXTT11=
EXTT12=
EXTT13=
PLAYORDER=
